<?xml version="1.0" standalone="no"?><!DOCTYPE svg PUBLIC "-//W3C//DTD SVG 1.1//EN" "http://www.w3.org/Graphics/SVG/1.1/DTD/svg11.dtd"><svg t="1579445574038" class="icon" viewBox="0 0 2851 1024" version="1.1" xmlns="http://www.w3.org/2000/svg" p-id="6600" xmlns:xlink="http://www.w3.org/1999/xlink" width="556.8359375" height="200"><defs><style type="text/css"></style></defs><path d="M1187.495798 154.890756h193.613446V94.655462c0-12.907563 8.605042-21.512605 21.512605-21.512605h73.142857c12.907563 0 21.512605 8.605042 21.512605 21.512605v60.235294h193.613445c4.302521 0 8.605042 4.302521 8.605042 8.605042v21.512605c0 4.302521-4.302521 8.605042-8.605042 8.605042h-193.613445V258.151261h176.403361c-38.722689 94.655462-98.957983 176.403361-180.705882 236.638655 64.537815 43.02521 133.378151 73.142857 210.823529 90.352941v47.327731c-90.352941-17.210084-180.705882-51.630252-258.15126-98.957983-77.445378 47.327731-163.495798 81.747899-253.84874 103.260504v-43.02521c0-4.302521 124.773109-38.722689 206.521009-90.352941-60.235294-43.02521-111.865546-94.655462-150.588236-154.890756h86.050421c30.117647 43.02521 68.840336 81.747899 107.563025 116.168067 47.327731-47.327731 86.05042-98.957983 116.168067-159.193277h-335.596639c-4.302521 0-4.302521 0-8.605042-4.302521 0 0-4.302521-4.302521-4.302521-8.605042v-25.815126c0-4.302521 0-4.302521 4.302521-8.605042 0 0 4.302521-4.302521 8.605042-4.302522h159.193278V193.613445h-193.613446c-4.302521 0-4.302521 0-8.605042-4.302521s-4.302521-4.302521-4.302521-8.605042v-17.210084c0-4.302521 0-4.302521 4.302521-8.605042h8.605042z m701.310925 86.05042v374.319328c0 4.302521 0 4.302521-4.302521 4.302521l-4.302521 4.302521H1807.058824c-4.302521 0-4.302521 0-4.302521-4.302521l-4.302521-4.302521V326.991597h-86.050421l116.168068-245.243698h94.655462L1850.084034 240.941176h38.722689z m43.02521-60.235294H2151.260504V103.260504c0-8.605042 4.302521-12.907563 12.907563-12.907563h64.537815c8.605042 0 12.907563 4.302521 12.907563 12.907563v77.445378h34.420168c4.302521 0 4.302521 4.302521 4.302521 8.605042v21.512605c0 4.302521 0 4.302521-4.302521 4.302521h-34.420168v361.411765c0 38.722689-47.327731 34.420168-47.327731 34.420168l-107.563025 4.302521v-34.420168c17.210084 4.302521 38.722689 0 55.932773-4.302521 8.605042-8.605042 12.907563-17.210084 8.605042-30.117647V215.12605h-219.428571c-4.302521 0-8.605042-4.302521-8.605042-8.605042v-17.210084c4.302521-4.302521 4.302521-8.605042 8.605042-8.605042z m30.117647 94.655463c-4.302521 0-4.302521 0 0 0-4.302521 4.302521-4.302521 4.302521 0 0l55.932773 172.10084c0 4.302521 4.302521 4.302521 8.605042 4.302521H2108.235294v-4.302521l-60.235294-167.798319c0-4.302521-4.302521-4.302521-8.605042-4.302521h-77.445378z m387.226891-141.983194H2538.487395V81.747899s0-4.302521 4.302521-4.302521H2641.747899l4.302521 4.302521v51.630252h185.008404c4.302521 0 8.605042 4.302521 8.605042 8.605042v77.445378c0 4.302521-4.302521 8.605042-8.605042 8.605042h-86.050421c-4.302521 0-8.605042-4.302521-8.605042-8.605042V167.798319h-292.571428V215.12605c0 4.302521-4.302521 8.605042-8.605042 8.605042h-86.05042c-4.302521 0-8.605042-4.302521-8.605042-8.605042V137.680672c4.302521 0 8.605042-4.302521 8.605042-4.302521z m292.571428 154.890757v81.747899h189.310925c4.302521 0 8.605042 4.302521 8.605042 8.605042v21.512605c0 4.302521-4.302521 8.605042-8.605042 8.605042h-189.310925v163.495798h98.957983l-25.815126-77.445378v-4.302521H2796.638655c4.302521 0 8.605042 4.302521 8.605042 4.302521l34.420169 94.655462v8.605042c0 4.302521-4.302521 8.605042-8.605042 8.605042H2353.478992c-4.302521 0-8.605042-4.302521-8.605042-8.605042v-21.512605c0-4.302521 4.302521-8.605042 8.605042-8.605042h189.310924V408.739496h-189.310924c-4.302521 0-8.605042-4.302521-8.605042-8.605042v-21.512605c0-4.302521 4.302521-8.605042 8.605042-8.605042h189.310924V288.268908h-189.310924c-4.302521 0-8.605042-4.302521-8.605042-8.605042V258.151261h481.882353c8.605042-4.302521 12.907563 0 12.907563 4.302521v21.512605c0 4.302521-4.302521 8.605042-8.605042 8.605042l-189.310925-4.302521zM1441.344538 920.739496v8.605042h-30.117647-4.302521v-4.302521l-21.512605-55.932773H1290.756303l-21.512606 55.932773v4.302521h-30.117647v-4.302521-4.302521l81.7479-215.126051v-4.302521H1359.596639v4.302521l81.747899 215.126051zM1338.084034 731.428571l-43.02521 116.168068h86.05042l-43.02521-116.168068z m382.924369 185.008404V929.344538h-111.865546c-4.302521 0-4.302521 0-8.605042-4.302521s-4.302521-4.302521-4.302521-8.605042v-215.126051-4.302521H1630.655462V903.529412H1721.008403V916.436975c-4.302521-4.302521-4.302521-4.302521 0 0z m176.403362 8.605042s0 4.302521 0 0c0 4.302521 0 4.302521 0 0l-25.815126 4.302521h-4.302521v-228.033614-4.302521h30.117647v228.033614z m322.689075-159.193278c0 12.907563 0 21.512605-4.302521 30.117648s-8.605042 17.210084-17.210084 25.815126-17.210084 12.907563-30.117647 17.210084-25.815126 4.302521-38.722689 4.302521h-30.117647v86.05042h-30.117647-4.302521v-215.126051c0-4.302521 0-8.605042 4.302521-8.605042s4.302521-4.302521 8.605042-4.302521H2151.260504c4.302521 0 12.907563 0 17.210084 4.302521 8.605042 0 12.907563 4.302521 21.512605 8.605042s12.907563 8.605042 17.210084 12.907563c4.302521 4.302521 8.605042 12.907563 12.907563 17.210084v21.512605z m-34.420168 4.302522c0-8.605042 0-17.210084-4.302521-21.512606s-8.605042-12.907563-12.907563-12.907563c-4.302521-4.302521-12.907563-4.302521-17.210084-4.302521h-47.327731v86.050421h30.117647c8.605042 0 17.210084 0 25.815126-4.302521 4.302521-4.302521 12.907563-4.302521 17.210084-8.605042 4.302521-4.302521 8.605042-8.605042 8.605042-17.210084v-17.210084z m348.504202 150.588235v8.605042h-25.815126-4.302521v-4.302521l-21.512605-55.932773h-98.957983l-21.512605 55.932773v4.302521h-30.117647v-4.302521-4.302521l81.747899-215.126051v-4.302521H2448.134454v4.302521l86.05042 215.126051zM2426.621849 731.428571l-43.02521 116.168068h86.05042l-43.02521-116.168068z m305.478991 111.865547v90.352941h-30.117647-4.302521v-90.352941l-68.840336-129.075631s0-4.302521-4.302521-8.605042v-4.302521H2658.957983v4.302521l34.420168 64.537816c4.302521 4.302521 4.302521 12.907563 8.605042 21.512605l8.605042 21.512605c4.302521-8.605042 4.302521-12.907563 8.605042-21.512605l8.605042-21.512605 34.420168-68.840337v-4.302521H2800.941176v4.302521c0 4.302521 0 4.302521-4.302521 4.302521l-64.537815 137.680673z" fill="#595757" p-id="6601"></path><path d="M197.915966 0H817.478992c107.563025 0 197.915966 90.352941 197.915966 197.915966v499.092437c-73.142857-25.815126-232.336134-81.747899-344.201681-116.168067 38.722689-64.537815 68.840336-133.378151 90.352941-206.521008h-197.915966V301.176471h240.941177v-34.420168h-240.941177V150.588235h-107.563025v116.168068H215.12605V301.176471h240.941177v73.142857H249.546218v38.722689h391.529412c-4.302521 51.630252-25.815126 103.260504-55.932773 141.983193-197.915966-51.630252-348.504202-86.05042-447.462185-4.302521s-47.327731 344.201681 236.638656 283.966387c98.957983-25.815126 189.310924-86.05042 249.546218-167.79832l400.134454 172.100841c-8.605042 103.260504-94.655462 185.008403-197.915966 185.008403H197.915966c-107.563025 0-197.915966-90.352941-197.915966-197.915966V197.915966C0 90.352941 90.352941 0 197.915966 0z m335.596639 623.865546c-185.008403-98.957983-292.571429-90.352941-348.504202-55.932773-64.537815 34.420168-90.352941 120.470588-25.815126 172.10084 21.512605 12.907563 43.02521 25.815126 68.840336 30.117648 176.403361 38.722689 305.478992-146.285714 305.478992-146.285715z" fill="#00A0E9" p-id="6602"></path></svg>