<?xml version="1.0" standalone="no"?><!DOCTYPE svg PUBLIC "-//W3C//DTD SVG 1.1//EN" "http://www.w3.org/Graphics/SVG/1.1/DTD/svg11.dtd"><svg t="1579445599314" class="icon" viewBox="0 0 3276 1024" version="1.1" xmlns="http://www.w3.org/2000/svg" p-id="8416" xmlns:xlink="http://www.w3.org/1999/xlink" width="639.84375" height="200"><defs><style type="text/css"></style></defs><path d="M901.12 532.48h225.28V682.666667c0 20.48-13.653333 34.133333-34.133333 34.133333h-13.653334v34.133333h61.44c34.133333 0 61.44-27.306667 61.44-61.44V532.48h225.28V375.466667h-518.826666c-6.826667 0-6.826667 157.013333-6.826667 157.013333z m68.266667-109.226667h382.293333V477.866667h-382.293333v-54.613334z m225.28-116.053333V273.066667h-68.266667v34.133333h-259.413333v54.613333h580.266666v-61.44l-252.586666 6.826667z" fill="#CB0F19" p-id="8417"></path><path d="M948.906667 559.786667h81.92s-54.613333 177.493333-136.533334 191.146666h-13.653333s81.92-95.573333 68.266667-191.146666z m327.68 0h81.92s13.653333 95.573333 75.093333 191.146666c0 0-61.44 27.306667-157.013333-191.146666z m286.72 0h81.92s-54.613333 177.493333-136.533334 191.146666h-13.653333s75.093333-95.573333 68.266667-191.146666z m327.68 0h81.92s13.653333 95.573333 75.093333 191.146666c0 0-61.44 27.306667-157.013333-191.146666z" fill="#CB0F19" p-id="8418"></path><path d="M1488.213333 307.2h136.533334V273.066667h68.266666v34.133333h361.813334v54.613333h-382.293334L1617.92 477.866667h129.706667V389.12h68.266666V477.866667h225.28v54.613333h-218.453333v143.36c0 47.786667-34.133333 81.92-81.92 81.92h-40.96v-54.613333h6.826667c20.48 0 34.133333-13.653333 34.133333-34.133334v-136.533333H1501.866667l81.92-170.666667h-102.4l6.826666-54.613333z m621.226667 34.133333h238.933333V273.066667h81.92v68.266666H2662.4v54.613334h-225.28v68.266666h170.666667v54.613334L2457.6 669.013333s116.053333 61.44 218.453333 61.44v20.48s-157.013333 0-293.546666-61.44c0 0-116.053333 61.44-273.066667 61.44v-27.306666s150.186667-20.48 211.626667-61.44c0 0-102.4-68.266667-143.36-129.706667h102.4s75.093333 95.573333 116.053333 88.746667c0 0 88.746667-40.96 109.226667-109.226667h-354.986667v-54.613333h197.973333v-68.266667h-238.933333V341.333333z m716.8-68.266666s20.48 75.093333-116.053333 177.493333v20.48h68.266666V750.933333h75.093334V389.12s40.96-61.44 47.786666-122.88c0 6.826667-75.093333 6.826667-75.093333 6.826667z m75.093333 81.92h232.106667V273.066667H3208.533333v88.746666h68.266667V409.6h-61.44v238.933333c0 47.786667-40.96 102.4-88.746667 102.4h-34.133333v-13.653333h6.826667c20.48 0 40.96-20.48 40.96-40.96V409.6h-232.106667l-6.826667-54.613333z" fill="#CB0F19" p-id="8419"></path><path d="M2935.466667 464.213333h68.266666l47.786667 129.706667h-61.44z" fill="#CB0F19" p-id="8420"></path><path d="M744.106667 983.04H6.826667s-6.826667 0-6.826667-6.826667V47.786667S0 40.96 6.826667 40.96h737.28s6.826667 0 6.826666 6.826667l-6.826666 935.253333c6.826667-6.826667 6.826667 0 0 0z" fill="#CB0F19" p-id="8421"></path><path d="M61.44 211.626667h628.053333V341.333333H61.44V211.626667z" fill="#CEA754" p-id="8422"></path><path d="M696.32 211.626667H61.44v-68.266667c0-13.653333 13.653333-20.48 20.48-20.48h587.093333c13.653333 0 20.48 13.653333 20.48 20.48v68.266667zM109.226667 709.973333h47.786666s-27.306667 102.4-81.92 109.226667H68.266667s40.96-54.613333 40.96-109.226667z m184.32 0H341.333333s6.826667 54.613333 40.96 109.226667c0 0-34.133333 13.653333-88.746666-109.226667z" fill="#FFFFFF" p-id="8423"></path><path d="M61.44 559.786667h81.92v-20.48h40.96v20.48h211.626667v27.306666H170.666667L136.533333 662.186667h75.093334V614.4h40.96v47.786667h129.706666v27.306666H252.586667v81.92c0 27.306667-20.48 47.786667-47.786667 47.786667h-27.306667v-27.306667h6.826667c13.653333 0 20.48-6.826667 20.48-20.48v-75.093333H68.266667l47.786666-102.4H61.44v-34.133333z m395.946667-20.48s6.826667 40.96-68.266667 102.4v13.653333h40.96V819.2h40.96V607.573333s27.306667-34.133333 27.306667-68.266666h-40.96z m40.96 54.613333h136.533333v-54.613333h40.96v47.786666h40.96V614.4H682.666667v136.533333c0 27.306667-20.48 61.44-47.786667 61.44h-27.306667v-6.826666c13.653333 0 20.48-13.653333 20.48-20.48V621.226667h-136.533333l6.826667-27.306667z" fill="#FFFFFF" p-id="8424"></path><path d="M518.826667 648.533333h40.96l27.306666 75.093334h-34.133333l-34.133333-75.093334z" fill="#FFFFFF" p-id="8425"></path></svg>