<?xml version="1.0" standalone="no"?><!DOCTYPE svg PUBLIC "-//W3C//DTD SVG 1.1//EN" "http://www.w3.org/Graphics/SVG/1.1/DTD/svg11.dtd"><svg t="1579445651325" class="icon" viewBox="0 0 3621 1024" version="1.1" xmlns="http://www.w3.org/2000/svg" p-id="13382" xmlns:xlink="http://www.w3.org/1999/xlink" width="707.2265625" height="200"><defs><style type="text/css"></style></defs><path d="M782.060151 260.175716c12.469947-79.670376-0.137284-133.897484-43.221522-182.953568C691.42995 23.178085 605.719087 0 496.097958 0H177.851186C155.405282 0 136.368593 16.313894 132.844975 38.439469L0.34321 878.799482a27.34236 27.34236 0 0 0 26.97627 31.598158h196.476024l-13.545336 85.985432c-2.288064 14.483443 8.900568 27.616928 23.589936 27.616928h165.587165c19.608705 0 36.288689-14.254636 39.377575-33.634535l1.601645-8.420075 31.186307-197.825982 2.036377-10.914063a39.812307 39.812307 0 0 1 39.354694-33.657416h24.756849c160.439022 0 286.053716-65.164052 322.777137-253.700496 15.330026-78.73227 7.390446-144.491219-33.154042-190.732985-12.264021-13.980069-27.502525-25.51191-45.30366-34.938732" fill="#1992CD" p-id="13383"></path><path d="M782.060151 260.175716c12.469947-79.670376-0.137284-133.897484-43.221522-182.953568C691.42995 23.178085 605.719087 0 496.097958 0H177.851186C155.405282 0 136.368593 16.313894 132.844975 38.439469L0.34321 878.799482a27.34236 27.34236 0 0 0 26.97627 31.598158h196.476024l49.376414-313.007105-1.533003 9.838674a45.372302 45.372302 0 0 1 44.823167-38.43947h93.375877c183.411181 0 326.964294-74.499352 368.973142-289.989185 1.212674-6.383698 2.265183-12.538589 3.24905-18.624838" fill="#1B2C57" p-id="13384"></path><path d="M326.140591 261.228225a40.041114 40.041114 0 0 1 22.171336-29.744827c5.239666-2.493989 11.074228-3.889708 17.206239-3.889708h249.444698c29.584663 0 57.110068 1.921973 82.324529 5.994727 7.18452 1.166912 14.208875 2.493989 21.027305 3.98123a300.788846 300.788846 0 0 1 29.241453 8.053984 227.433525 227.433525 0 0 1 34.504 14.574966c12.469947-79.670376-0.137284-133.897484-43.221522-182.953569C691.42995 23.178085 605.719087 0 496.097958 0H177.851186C155.405282 0 136.368593 16.313894 132.844975 38.439469L0.34321 878.799482a27.34236 27.34236 0 0 0 26.97627 31.598158h196.476024l49.376414-313.007105 52.968673-336.16231z" fill="#123479" p-id="13385"></path><path d="M2801.024623 351.355052h-196.361621c-13.430934 0-24.871252 9.770032-26.97627 23.040801l-79.372928 503.465523a16.336774 16.336774 0 0 0 16.15373 18.899405h100.69768a19.105331 19.105331 0 0 0 18.899406-16.107968l22.491665-142.75229a27.273719 27.273719 0 0 1 26.95339-22.972159H2745.676364c129.298476 0 203.957993-62.624302 223.475176-186.660232 8.763284-54.249989 0.36609-96.899495-25.054297-126.735844-27.914376-32.833713-77.382312-50.177236-143.07262-50.177236z m22.674711 183.891675c-10.753899 70.495241-64.592036 70.495241-116.668365 70.49524h-29.561782l20.729857-131.60942a16.382536 16.382536 0 0 1 16.153729-13.819905h13.613979c35.442106 0 68.916477 0 86.214237 20.226483 10.273406 12.058095 13.430934 29.973634 9.518345 54.707602z" fill="#1992CD" p-id="13386"></path><path d="M1400.546633 351.355052h-196.31586c-13.453814 0-24.871252 9.770032-26.976271 23.040801l-79.395808 503.465523a16.359655 16.359655 0 0 0 16.153729 18.899405h93.787729c13.385172 0 24.82549-9.747151 26.930509-23.01792l21.439156-135.865219a27.227957 27.227957 0 0 1 26.930509-22.972159h62.120928c129.344237 0 204.003754-62.624302 223.520937-186.660231 8.763284-54.249989 0.34321-96.899495-25.054297-126.735845-27.937257-32.810833-77.428073-50.154355-143.141261-50.154355z m22.67471 183.891675c-10.708138 70.495241-64.569156 70.495241-116.622603 70.49524h-29.607544l20.775618-131.60942a16.405416 16.405416 0 0 1 16.17661-13.819905h13.568217c35.442106 0 68.916477 0 86.191358 20.226483 10.273406 12.058095 13.430934 29.973634 9.518344 54.707602zM1987.457836 532.981544h-93.993654a16.359655 16.359655 0 0 0-16.199491 13.819904l-4.118514 26.26697-6.566743-9.518344c-20.386647-29.584663-65.78183-39.446217-111.062609-39.446217-103.855208 0-192.586316 78.709389-209.884077 189.13134-8.99209 55.073692 3.775305 107.722036 34.984493 144.422577 28.692318 33.7947 69.648657 47.843411 118.430174 47.84341 83.720248 0 130.14506-53.792376 130.145059-53.792376l-4.164275 26.152568a16.336774 16.336774 0 0 0 16.130848 18.899405h84.681235c13.408053 0 24.871252-9.747151 26.95339-23.01792l50.863655-321.839031a16.428297 16.428297 0 0 0-16.199491-18.922286z m-131.037404 182.999329c-9.060732 53.723734-51.755999 89.783617-106.120392 89.783617-27.273719 0-49.101846-8.786164-63.150556-25.351745-13.911427-16.474058-19.151093-39.90383-14.758011-66.033516 8.488716-53.266121 51.824641-90.492917 105.365331-90.492917 26.701703 0 48.392546 8.854806 62.692944 25.626313 14.414801 16.88591 20.089199 40.475846 15.970684 66.468248z" fill="#123479" p-id="13387"></path><path d="M3387.890066 532.981544h-94.016535a16.336774 16.336774 0 0 0-16.153729 13.819904l-4.141396 26.26697-6.566742-9.518344c-20.386647-29.584663-65.736068-39.446217-111.062609-39.446217-103.878089 0-192.609197 78.709389-209.861197 189.13134-8.99209 55.073692 3.752424 107.722036 34.984493 144.422577 28.692318 33.7947 69.625776 47.843411 118.430174 47.84341 83.697368 0 130.14506-53.792376 130.14506-53.792376l-4.187157 26.152568a16.382536 16.382536 0 0 0 16.153729 18.899405h84.681236c13.430934 0 24.871252-9.747151 26.953389-23.01792l50.840774-321.839031a16.428297 16.428297 0 0 0-16.19949-18.922286z m-131.037405 182.999329c-9.083613 53.723734-51.733119 89.783617-106.120391 89.783617-27.250838 0-49.101846-8.786164-63.150557-25.351745-13.888546-16.474058-19.151093-39.90383-14.712249-66.033516 8.442955-53.266121 51.801761-90.492917 105.34245-90.492917 26.701703 0 48.392546 8.854806 62.692944 25.626313 14.414801 16.88591 20.066318 40.475846 15.947803 66.468248z" fill="#1992CD" p-id="13388"></path><path d="M2488.200563 532.981544h-94.474147c-9.060732 0-17.503687 4.484605-22.583189 11.943692l-130.350985 191.991419-55.256737-184.486571a27.273719 27.273719 0 0 0-26.129687-19.471421h-92.895383a16.405416 16.405416 0 0 0-15.513072 21.667963l104.084015 305.410734-97.883362 138.107521a16.359655 16.359655 0 0 0 13.362291 25.832238h94.405506c8.946329 0 17.297761-4.370202 22.400143-11.760647l314.288421-453.562854a16.359655 16.359655 0 0 0-13.453814-25.672074z" fill="#123479" p-id="13389"></path><path d="M3498.723868 365.197837l-80.56272 512.663539a16.336774 16.336774 0 0 0 16.153729 18.899405h81.043214c13.408053 0 24.848371-9.747151 26.95339-23.01792l79.441569-503.465523a16.336774 16.336774 0 0 0-16.130849-18.922286h-90.698842a16.359655 16.359655 0 0 0-16.199491 13.842785z" fill="#1992CD" p-id="13390"></path></svg>