<?xml version="1.0" standalone="no"?><!DOCTYPE svg PUBLIC "-//W3C//DTD SVG 1.1//EN" "http://www.w3.org/Graphics/SVG/1.1/DTD/svg11.dtd"><svg t="1579445999988" class="icon" viewBox="0 0 1024 1024" version="1.1" xmlns="http://www.w3.org/2000/svg" p-id="9725" xmlns:xlink="http://www.w3.org/1999/xlink" width="200" height="200"><defs><style type="text/css"></style></defs><path d="M519.871215 1012.923716a374.019339 374.019339 0 0 1-226.267302-70.196615 307.150184 307.150184 0 0 0-83.538451 34.71437c-18.68497 12.797924-16.381343 26.011781-12.989893 31.290925 14.781603 23.292222 253.814834 14.877587 322.827641 7.614765z" fill="#FAAD08" p-id="9726"></path><path d="M503.649846 1012.923716a374.019339 374.019339 0 0 0 226.267302-70.196615 307.150184 307.150184 0 0 1 83.538451 34.71437c18.68497 12.797924 16.349348 26.011781 12.989894 31.290925-14.781603 23.292222-253.814834 14.877587-322.827642 7.614765z" fill="#FAAD08" p-id="9727"></path><path d="M504.161763 469.747813a1278.608626 1278.608626 0 0 0 307.726091-39.76955 38.393773 38.393773 0 0 0 14.749607-7.166838c0-1.311787 0.607901-23.580176 0.607902-35.194292 0-193.344642-93.552827-387.617133-323.627512-387.617133S179.958345 194.432465 179.958345 387.777107c0 11.486137 0.575907 33.722531 0.607901 35.194292a27.739501 27.739501 0 0 0 11.83808 6.398962 1273.841399 1273.841399 0 0 0 310.637619 40.537426z" p-id="9728"></path><path d="M912.767492 633.177307a1653.587809 1653.587809 0 0 0-34.234447-96.43236 37.369939 37.369939 0 0 0-10.942226 0.159974 1328.520531 1328.520531 0 0 1-355.302374 52.535479h-1.087824a1328.360557 1328.360557 0 0 1-353.41468-51.991567 51.735609 51.735609 0 0 0-12.797925-0.703886 1679.087673 1679.087673 0 0 0-34.234447 96.43236C67.176637 773.122609 81.318343 831.065212 92.036605 832.345004c23.068259 2.783549 89.777439-105.358912 89.777439-105.358912 0 109.87018 99.375882 278.610813 326.954972 280.146564h6.047019c227.57909-1.567746 326.954972-170.276383 326.954972-280.146564 0 0 66.709181 108.142461 89.777439 105.358912 10.750256-1.311787 24.859968-59.222395-18.716964-199.167697" p-id="9729"></path><path d="M433.549215 292.432571c-31.386909 1.407772-58.230556-33.882505-59.894285-78.707235s22.396368-82.354643 53.751282-83.762414 58.166566 33.882505 59.862291 78.739229-22.396368 82.354643-53.719288 83.762415m232.538286-78.707235c-1.695725 44.792735-28.507376 79.987027-59.894286 78.707235s-55.447007-38.873695-53.719288-83.762415 28.507376-79.987027 59.862291-78.739229 55.447007 38.90569 53.751283 83.762414" fill="#FFFFFF" p-id="9730"></path><path d="M714.43166 350.599137c-8.254661-19.804788-91.217206-41.881207-193.920549-41.881207h-1.247797c-102.703343 0-185.569903 22.076419-193.920549 41.881207a7.006864 7.006864 0 0 0-0.607901 2.815544 7.102848 7.102848 0 0 0 1.119818 3.807382 339.816886 339.816886 0 0 0 193.376637 65.269414h1.119818a339.848881 339.848881 0 0 0 193.376637-65.269414 7.166838 7.166838 0 0 0 1.119818-3.807382 7.006864 7.006864 0 0 0-0.607901-2.815544" fill="#FAAD08" p-id="9731"></path><path d="M470.951149 224.315619a31.098956 31.098956 0 0 1-21.692481 35.482245c-13.405826 1.72772-25.40388-11.358158-26.811652-29.243257a31.098956 31.098956 0 0 1 21.660487-35.482245c13.405826-1.72772 25.595849 11.358158 26.843646 29.211262m82.258659 8.926552a57.398691 57.398691 0 0 1 62.58185-20.124736 32.698697 32.698697 0 0 1 16.509322 7.102848 8.38264 8.38264 0 0 1 0.383938 8.638599 9.37448 9.37448 0 0 1-12.797924 5.887045 46.168512 46.168512 0 0 0-56.150893 7.358807 6.206993 6.206993 0 0 1-7.966708 0.287953 7.070853 7.070853 0 0 1-2.463601-9.150516" p-id="9732"></path><path d="M512.25645 593.471746h-1.087823a1257.971973 1257.971973 0 0 1-242.232713-24.667999 653.334037 653.334037 0 0 0-7.806734 153.255144c9.406474 154.566931 103.087281 251.735172 247.671831 253.142943h5.887045c144.58455-1.407772 238.233362-98.576012 247.67183-253.142943a653.270048 653.270048 0 0 0-7.806733-153.255144 1257.396066 1257.396066 0 0 1-242.296703 24.667999" fill="#FFFFFF" p-id="9733"></path><path d="M308.577484 585.089106v154.662915a511.373062 511.373062 0 0 0 146.31227 4.38329v-147.976001a1385.823237 1385.823237 0 0 1-146.31227-16.253363" fill="#EB1C26" p-id="9734"></path><path d="M827.469327 421.659612a1079.632897 1079.632897 0 0 1-315.148887 47.608279h-1.087824a1261.267438 1261.267438 0 0 1-330.154453-47.608279l-36.474084 117.069013a1287.823131 1287.823131 0 0 0 366.596542 62.549855h1.087824A1292.910306 1292.910306 0 0 0 880.836671 541.832122z" fill="#EB1C26" p-id="9735"></path></svg>