<?xml version="1.0" standalone="no"?><!DOCTYPE svg PUBLIC "-//W3C//DTD SVG 1.1//EN" "http://www.w3.org/Graphics/SVG/1.1/DTD/svg11.dtd"><svg t="1579445610103" class="icon" viewBox="0 0 3276 1024" version="1.1" xmlns="http://www.w3.org/2000/svg" p-id="9342" xmlns:xlink="http://www.w3.org/1999/xlink" width="639.84375" height="200"><defs><style type="text/css"></style></defs><path d="M703.146667 409.6c6.826667-54.613333-27.306667-95.573333-88.746667-88.746667-54.613333 6.826667-109.226667 81.92-102.4 150.186667 6.826667 27.306667 27.306667 68.266667 68.266667 68.266667 61.44 0 116.053333-68.266667 122.88-129.706667z m157.013333 368.64c13.653333 6.826667 27.306667 6.826667 40.96-6.826667l6.826667-20.48c-27.306667 0-47.786667 0-47.786667 27.306667z m-88.746667-116.053333l-13.653333 47.786666c47.786667 13.653333 75.093333-61.44 13.653333-47.786666z" fill="#1A5C97" p-id="9343"></path><path d="M1160.533333 382.293333c-6.826667 0-20.48 6.826667-27.306666 6.826667-54.613333-61.44-136.533333-102.4-225.28-102.4h-27.306667C826.026667 204.8 730.453333 136.533333 614.4 136.533333 457.386667 136.533333 341.333333 245.76 314.026667 389.12c-13.653333 0-34.133333-6.826667-61.44-6.826667-136.533333 0-252.586667 116.053333-252.586667 252.586667C0 785.066667 116.053333 887.466667 252.586667 887.466667H1160.533333c136.533333 0 252.586667-116.053333 252.586667-252.586667S1303.893333 382.293333 1160.533333 382.293333z m-116.053333 102.4c0 6.826667-6.826667 13.653333-6.826667 13.653334-68.266667-34.133333-95.573333 88.746667-13.653333 61.44 0 6.826667 0 6.826667 6.826667 13.653333-27.306667 13.653333-81.92 6.826667-88.746667-13.653333-27.306667-40.96 40.96-102.4 102.4-75.093334z m-122.88-47.786666c6.826667 0 13.653333 6.826667 13.653333 13.653333s-6.826667 13.653333-13.653333 13.653333-13.653333-6.826667-13.653333-13.653333c-6.826667-6.826667 0-13.653333 13.653333-13.653333z m-40.96 129.706666l20.48-61.44 6.826667-20.48h27.306666l-20.48 109.226667h-34.133333v-27.306667z m-81.92 6.826667c6.826667 6.826667 13.653333-6.826667 27.306667-6.826667l13.653333-81.92c6.826667 0 27.306667 0 40.96-6.826666l-27.306667 109.226666H819.2l6.826667-6.826666c-13.653333 6.826667-47.786667 6.826667-54.613334 6.826666-6.826667 0-6.826667-6.826667-6.826666-20.48v-6.826666l6.826666-6.826667 13.653334-68.266667h27.306666v6.826667l-13.653333 61.44v6.826667c-13.653333 0-13.653333 6.826667 0 13.653333z m-573.44 13.653333l27.306667 47.786667-20.48 13.653333-27.306667-47.786666 20.48-13.653334z m-68.266667 225.28c0-6.826667 6.826667-27.306667 6.826667-34.133333l27.306667-122.88h34.133333L184.32 819.2h-27.306667z m129.706667-88.746666c-20.48 20.48-40.96 40.96-68.266667 47.786666l-6.826666-20.48c6.826667 0 40.96-27.306667 47.786666-34.133333 13.653333-13.653333 40.96-47.786667 47.786667-68.266667l27.306667 6.826667c-6.826667 13.653333-13.653333 27.306667-27.306667 34.133333 6.826667 13.653333 47.786667 47.786667 47.786667 54.613334l-20.48 13.653333c-20.48 0-34.133333-13.653333-47.786667-34.133333z m136.533333-102.4c0 6.826667-6.826667 6.826667-6.826666 13.653333l-20.48 109.226667c0 6.826667 0 13.653333-6.826667 20.48-6.826667 27.306667-27.306667 47.786667-68.266667 47.786666l-6.826666-27.306666c6.826667 0 20.48 6.826667 27.306666 0 6.826667 0 6.826667-6.826667 6.826667-6.826667l27.306667-109.226667c6.826667-6.826667 6.826667-13.653333 6.826666-27.306666l6.826667-6.826667H266.24l6.826667-27.306667h157.013333l-6.826667 13.653334z m68.266667 170.666666c0 6.826667-6.826667 13.653333-6.826667 27.306667h-27.306666c6.826667-40.96 13.653333-81.92 27.306666-122.88-13.653333 6.826667-13.653333 6.826667-34.133333 13.653333l-6.826667-13.653333v-6.826667c40.96-27.306667 68.266667-54.613333 88.746667-95.573333l27.306667 13.653333c-27.306667 27.306667-40.96 68.266667-47.786667 109.226667l-20.48 75.093333z m61.44-95.573333l27.306667-6.826667 27.306666 68.266667-27.306666 6.826667-27.306667-68.266667z m122.88-20.48l-13.653333 81.92v6.826667c-13.653333 47.786667-13.653333 54.613333-61.44 54.613333h-13.653334l-6.826666-27.306667H614.4s6.826667 0 13.653333-6.826666c0-6.826667 6.826667-20.48 6.826667-27.306667l20.48-88.746667H546.133333l6.826667-27.306666h109.226667l6.826666-13.653334c-75.093333-40.96-204.8-47.786667-211.626666-143.36C436.906667 361.813333 552.96 266.24 669.013333 273.066667c47.786667 6.826667 95.573333 40.96 109.226667 88.746666 6.826667 109.226667-68.266667 177.493333-136.533333 204.8 20.48 6.826667 47.786667 13.653333 68.266666 27.306667l-6.826666 6.826667-13.653334 47.786666h27.306667l-6.826667 27.306667h-34.133333z m75.093333 54.613333l-13.653333 68.266667h-40.96l40.96-163.84c47.786667 6.826667 88.746667-6.826667 109.226667 13.653333 27.306667 40.96-34.133333 95.573333-95.573334 81.92z m143.36 68.266667c-13.653333 6.826667-54.613333 13.653333-68.266666 0-27.306667-34.133333 34.133333-68.266667 81.92-61.44 13.653333-34.133333-27.306667-20.48-47.786667-13.653333 0-6.826667-6.826667-6.826667-6.826667-13.653334 27.306667-6.826667 88.746667-27.306667 88.746667 6.826667 6.826667 27.306667-27.306667 54.613333-13.653333 95.573333-13.653333-6.826667-34.133333 6.826667-34.133334-13.653333z m47.786667 0c0-6.826667 6.826667-13.653333 13.653333-20.48 13.653333 6.826667 47.786667 6.826667 47.786667 0-6.826667-20.48-40.96-13.653333-40.96-40.96-6.826667-47.786667 47.786667-61.44 88.746667-47.786667-6.826667 6.826667-6.826667 6.826667-13.653334 20.48-6.826667-6.826667-40.96-13.653333-40.96 6.826667 6.826667 20.48 40.96 13.653333 40.96 40.96 0 47.786667-61.44 61.44-95.573333 40.96z m191.146667-40.96c6.826667 47.786667-54.613333 61.44-95.573334 40.96 6.826667-6.826667 6.826667-13.653333 13.653334-20.48 13.653333 6.826667 40.96 13.653333 47.786666 0-6.826667-20.48-40.96-13.653333-40.96-40.96-6.826667-47.786667 47.786667-61.44 88.746667-47.786667-6.826667 6.826667-6.826667 13.653333-13.653333 20.48-6.826667-6.826667-40.96-13.653333-40.96 6.826667 6.826667 13.653333 40.96 13.653333 40.96 40.96z m-13.653334-225.28l34.133334 61.44h-40.96L1092.266667 546.133333l-13.653334 47.786667h-34.133333l6.826667-27.306667c6.826667-20.48 6.826667-40.96 13.653333-61.44l20.48-88.746666h34.133333L1092.266667 525.653333l47.786666-40.96h40.96c-6.826667-6.826667-61.44 47.786667-61.44 47.786667z" fill="#1A5C97" p-id="9344"></path><path d="M1501.866667 471.04h559.786666v27.306667h-273.066666c-61.44 102.4-109.226667 184.32-163.84 252.586666l300.373333-6.826666L1850.026667 614.4l68.266666-27.306667 136.533334 184.32-88.746667 34.133334-13.653333-27.306667-416.426667 6.826667-6.826667-27.306667c54.613333-81.92 102.4-163.84 143.36-252.586667H1501.866667v-34.133333z m532.48-184.32h-498.346667v-27.306667h498.346667v27.306667zM2205.013333 791.893333h-75.093333V348.16h75.093333v443.733333z m54.613334-423.253333l-109.226667-88.746667 68.266667-54.613333 95.573333 109.226667-54.613333 34.133333z m170.666666-6.826667c0 47.786667-6.826667 88.746667-13.653333 122.88l136.533333 143.36-68.266666 47.786667L2389.333333 559.786667c-20.48 47.786667-61.44 88.746667-109.226666 129.706666l-47.786667-47.786666c81.92-61.44 122.88-157.013333 122.88-279.893334h75.093333z m136.533334-81.92h-279.893334v-20.48h361.813334V750.933333c0 6.826667-6.826667 13.653333-6.826667 27.306667-6.826667 6.826667-13.653333 6.826667-27.306667 6.826667H2457.6v-27.306667h109.226667v-477.866667zM2785.28 518.826667c-6.826667 6.826667-6.826667 13.653333-6.826667 20.48l-68.266666-27.306667c61.44-129.706667 102.4-225.28 116.053333-279.893333l88.746667 27.306666c-20.48 47.786667-27.306667 75.093333-47.786667 102.4v436.906667h-81.92V518.826667z m443.733333-273.066667v88.746667h47.786667v27.306666h-47.786667v395.946667c0 6.826667-6.826667 13.653333-6.826666 27.306667s-13.653333 6.826667-27.306667 6.826666h-157.013333v-27.306666h109.226666V361.813333h-238.933333v-27.306666h238.933333V245.76h81.92z m-211.626666 423.253333l-68.266667-218.453333 88.746667-20.48 47.786666 225.28-68.266666 13.653333z" fill="#1A5C97" p-id="9345"></path></svg>