<?xml version="1.0" standalone="no"?><!DOCTYPE svg PUBLIC "-//W3C//DTD SVG 1.1//EN" "http://www.w3.org/Graphics/SVG/1.1/DTD/svg11.dtd"><svg t="1579445873522" class="icon" viewBox="0 0 1024 1024" version="1.1" xmlns="http://www.w3.org/2000/svg" p-id="7536" xmlns:xlink="http://www.w3.org/1999/xlink" width="200" height="200"><defs><style type="text/css"></style></defs><path d="M146.285714 0h731.428572a146.285714 146.285714 0 0 1 146.285714 146.285714v731.428572a146.285714 146.285714 0 0 1-146.285714 146.285714H146.285714a146.285714 146.285714 0 0 1-146.285714-146.285714V146.285714a146.285714 146.285714 0 0 1 146.285714-146.285714z" fill="#1AAD19" p-id="7537"></path><path d="M411.062857 219.428571C265.508571 219.428571 146.285714 314.953143 146.285714 436.187429c0 69.997714 39.68 127.451429 105.947429 171.995428l-26.477714 76.690286 92.562285-44.690286c33.133714 6.326857 59.684571 12.8 92.745143 12.8a325.485714 325.485714 0 0 0 24.722286-1.024 183.844571 183.844571 0 0 1-8.155429-53.394286c0-111.286857 99.364571-201.654857 225.133715-201.654857 8.557714 0 17.078857 0.621714 25.490285 1.499429C655.323429 295.716571 541.293714 219.428571 411.062857 219.428571z m-86.016 172.105143c-19.821714 0-39.862857-12.8-39.862857-31.890285 0-19.2 20.041143-31.817143 39.862857-31.817143s33.060571 12.617143 33.060572 31.817143c0 19.090286-13.202286 31.890286-33.060572 31.890285z m185.344 0c-19.858286 0-39.753143-12.8-39.753143-31.890285 0-19.2 19.931429-31.817143 39.753143-31.817143 19.931429 0 33.133714 12.617143 33.133714 31.817143 0 19.090286-13.202286 31.890286-33.133714 31.890285z" fill="#FFFFFF" p-id="7538"></path><path d="M877.714286 605.513143c0-102.765714-101.705143-186.587429-215.954286-186.587429-120.978286 0-216.246857 83.821714-216.246857 186.587429 0 102.985143 95.268571 186.660571 216.246857 186.660571 25.307429 0 50.834286-6.436571 76.288-12.909714l69.741714 38.619429-19.126857-64.292572C839.68 714.861714 877.714286 663.515429 877.714286 605.513143z m-286.061715-32.146286c-12.653714 0-25.453714-12.726857-25.453714-25.709714 0-12.836571 12.763429-25.746286 25.453714-25.746286 19.236571 0 31.817143 12.909714 31.817143 25.746286 0 12.982857-12.580571 25.709714-31.817143 25.709714z m139.849143 0c-12.580571 0-25.270857-12.726857-25.270857-25.709714 0-12.836571 12.690286-25.746286 25.270857-25.746286 19.053714 0 31.817143 12.909714 31.817143 25.746286 0 12.982857-12.763429 25.709714-31.817143 25.709714z" fill="#FFFFFF" p-id="7539"></path></svg>