<?xml version="1.0" standalone="no"?><!DOCTYPE svg PUBLIC "-//W3C//DTD SVG 1.1//EN" "http://www.w3.org/Graphics/SVG/1.1/DTD/svg11.dtd"><svg t="1579446192516" class="icon" viewBox="0 0 1024 1024" version="1.1" xmlns="http://www.w3.org/2000/svg" p-id="14111" xmlns:xlink="http://www.w3.org/1999/xlink" width="200" height="200"><defs><style type="text/css"></style></defs><path d="M1024 701.0304V196.8896a196.9408 196.9408 0 0 0-196.9152-196.864H196.8384A196.9152 196.9152 0 0 0 0 196.8896v630.1952a196.864 196.864 0 0 0 196.8384 196.864h630.2208a197.0688 197.0688 0 0 0 193.8432-162.1248c-52.224-22.6048-278.528-120.32-396.416-176.5632-89.7024 108.672-183.68 173.8752-325.2992 173.8752s-236.16-87.2192-224.8448-193.9712c7.5008-70.0672 55.5776-184.6272 264.3456-164.9664 110.0032 10.2912 160.384 30.848 250.112 60.4672a707.456 707.456 0 0 0 57.1392-139.264H248.0384v-39.424h196.864v-70.784H204.8v-43.392h240.128V165.6832s2.176-16 19.8144-16H563.2v118.1184h256v43.392H563.2v70.784h208.8192c-19.1744 78.1568-48.3328 149.9392-84.8128 212.6848C747.904 616.6016 1024 701.0304 1024 701.0304z m-740.48 90.5472c-149.632 0-173.3376-94.4384-165.376-133.9392 7.8592-39.2704 51.2-90.5472 134.4-90.5472 95.5904 0 181.248 24.448 284.032 74.496-72.1664 93.9776-160.896 149.9904-253.056 149.9904z" fill="#009FE8" p-id="14112"></path></svg>